<?xml version="1.0" encoding="UTF-8"?>
<svg width="15px" height="18px" viewBox="0 0 15 18" version="1.1" xmlns="http://www.w3.org/2000/svg" xmlns:xlink="http://www.w3.org/1999/xlink">
    <title>Icon Shape</title>
    <g id="Page-1" stroke="none" stroke-width="1" fill="none" fill-rule="evenodd">
        <g id="Home-Dashboard" transform="translate(-158.000000, -927.000000)" fill="#FFFFFF">
            <path d="M161.75,939.6 L169.25,939.6 C169.767767,939.6 170.1875,940.002944 170.1875,940.5 C170.1875,940.997056 169.767767,941.4 169.25,941.4 L160.8125,941.4 C160.294733,941.4 159.875,940.997056 159.875,940.5 L159.875,928.8 L158.9375,928.8 C158.419733,928.8 158,928.397056 158,927.9 C158,927.402944 158.419733,927 158.9375,927 L160.8125,927 C161.330267,927 161.75,927.402944 161.75,927.9 L161.75,936 L169.976562,936 L171.125,931.5 L171.125,929.7009 C172.198438,929.7009 173,930.5055 173,931.5 C173,931.6314 172.984062,931.7619 172.953125,931.8906 L171.874063,936.3906 C171.677188,937.2141 170.887812,937.8 169.976562,937.8 L161.818437,937.8 L161.75,937.7991 L161.75,939.6 Z M161.28125,945 C160.5046,945 159.875,944.395584 159.875,943.65 C159.875,942.904416 160.5046,942.3 161.28125,942.3 C162.0579,942.3 162.6875,942.904416 162.6875,943.65 C162.6875,944.395584 162.0579,945 161.28125,945 Z M169.71875,945 C168.9421,945 168.3125,944.395584 168.3125,943.65 C168.3125,942.904416 168.9421,942.3 169.71875,942.3 C170.4954,942.3 171.125,942.904416 171.125,943.65 C171.125,944.395584 170.4954,945 169.71875,945 Z M167.375,929.7 L168.3125,929.7 C168.830267,929.7 169.25,930.102944 169.25,930.6 C169.25,931.097056 168.830267,931.5 168.3125,931.5 L167.375,931.5 L167.375,932.4 C167.375,932.897056 166.955267,933.3 166.4375,933.3 C165.919733,933.3 165.5,932.897056 165.5,932.4 L165.5,931.5 L164.5625,931.5 C164.044733,931.5 163.625,931.097056 163.625,930.6 C163.625,930.102944 164.044733,929.7 164.5625,929.7 L165.5,929.7 L165.5,928.8 C165.5,928.302944 165.919733,927.9 166.4375,927.9 C166.955267,927.9 167.375,928.302944 167.375,928.8 L167.375,929.7 Z" id="Icon-Shape"></path>
        </g>
    </g>
</svg>