<?xml version="1.0" encoding="UTF-8"?>
<svg width="32px" height="32px" viewBox="0 0 32 32" version="1.1" xmlns="http://www.w3.org/2000/svg" xmlns:xlink="http://www.w3.org/1999/xlink">
    <title>Combined Shape</title>
    <g id="Page-1" stroke="none" stroke-width="1" fill="none" fill-rule="evenodd">
        <g id="Home-Dashboard" transform="translate(-55.000000, -295.000000)" fill="#FFFFFF" fill-rule="nonzero">
            <g id="Rounded-Tabs" transform="translate(32.000000, 271.000000)">
                <path d="M55,48 L55,54.1538462 C54.9982276,55.1726996 54.188309,55.9981935 53.1886792,56 L53.1886792,56 L24.8113208,56 C23.811691,55.9981935 23.0017724,55.1726996 23,54.1538462 L23,54.1538462 L23,48 L55,48 Z M52.5849057,50.4615385 L25.4150943,50.4615385 L25.4150943,53.5384615 L52.5849057,53.5384615 L52.5849057,50.4615385 Z M55,43 L55,45 L23,45 L23,43 L55,43 Z M48.5983899,37 C50.469283,37 51.4498113,37.471071 52.3144151,37.8863357 C53.0727547,38.2507181 53.6700881,38.5379565 55,38.5379565 L55,38.5379565 L55,41 C53.1291069,41 52.1485786,40.528929 51.2839748,40.1136643 C50.5256352,39.7492819 49.9283019,39.4620435 48.5983899,39.4620435 C47.268478,39.4620435 46.6695346,39.7492819 45.912805,40.1136643 C45.0465912,40.528929 44.0660629,41 42.1967799,41 C40.3274969,41 39.3469686,40.528929 38.4823648,40.1136643 C37.7240252,39.7492819 37.1250818,39.4620435 35.7967799,39.4620435 C34.468478,39.4620435 33.8695346,39.7492819 33.112805,40.1136643 C32.2482013,40.528929 31.267673,41 29.3983899,41 C27.5291069,41 26.5485786,40.528929 25.6839748,40.1136643 C24.9272453,39.7492819 24.3299119,39.4620435 23,39.4620435 L23,39.4620435 L23,37 C24.869283,37 25.8498113,37.471071 26.7144151,37.8863357 C27.4711447,38.2507181 28.0700881,38.5379565 29.3983899,38.5379565 C30.7266918,38.5379565 31.3256352,38.2507181 32.0823648,37.8863357 C32.9469686,37.471071 33.9274969,37 35.7967799,37 C37.6660629,37 38.6465912,37.471071 39.511195,37.8863357 C40.2695346,38.2507181 40.8668679,38.5379565 42.1967799,38.5379565 C43.5266918,38.5379565 44.1256352,38.2507181 44.8823648,37.8863357 C45.7485786,37.471071 46.7274969,37 48.5983899,37 Z M40.5448553,24 C44.2963019,24 47.8400503,24.8515662 50.5256352,26.4004407 C53.4108679,28.0642216 55,30.3434598 55,32.8194554 L55,32.8194554 L55,34 L23,34 L23,32.8194554 C23,30.3434598 24.5891321,28.0642216 27.4743648,26.4004407 C30.1599497,24.8531402 33.7036981,24 37.4551447,24 L37.4551447,24 Z M40.5448553,26.3610892 L37.4551447,26.3610892 C31.678239,26.3610892 26.6934843,28.6781048 25.6260126,31.6389108 L25.6260126,31.6389108 L52.3739874,31.6389108 C51.3049057,28.6781048 46.321761,26.3610892 40.5448553,26.3610892 L40.5448553,26.3610892 Z" id="Combined-Shape"></path>
            </g>
        </g>
    </g>
</svg>