<?xml version="1.0" encoding="UTF-8"?>
<svg width="29px" height="38px" viewBox="0 0 29 38" version="1.1" xmlns="http://www.w3.org/2000/svg" xmlns:xlink="http://www.w3.org/1999/xlink">
    <title>Ice cream icon</title>
    <g id="Page-1" stroke="none" stroke-width="1" fill="none" fill-rule="evenodd" stroke-linecap="round" stroke-linejoin="round">
        <g id="Home-Dashboard" transform="translate(-238.000000, -293.000000)" stroke="#F35588" stroke-width="2">
            <g id="Rounded-Tabs" transform="translate(32.000000, 271.000000)">
                <g id="Ice-cream-icon" transform="translate(207.443182, 23.145833)">
                    <polyline id="Icon-Path" points="20.0909091 17.3541667 12.5568182 34.7083333 7.69105114 23.4746094"></polyline>
                    <path d="M15.9644247,14.8347135 C15.3616974,16.0952148 14.0620668,17.0442708 12.5568182,17.0442708 C11.5287287,17.0442708 10.4378551,16.656901 9.91753196,16.288125 C9.43880327,15.9495638 8.78977273,16.1145833 8.78977273,16.8893229 L8.78977273,21.6927083 C8.78675553,22.7183765 7.94523855,23.5491048 6.90625,23.5520833 L6.90625,23.5520833 C5.86726145,23.5491048 5.02574447,22.7183765 5.02272727,21.6927083 L5.02272727,17.3541667 L4.86576705,17.3541667 C2.09149503,17.3541667 6.03961325e-14,15.1345378 6.03961325e-14,12.3958333 C6.03961325e-14,9.65742145 2.2487516,7.4375 5.02272727,7.4375 L5.65056818,7.4375 L5.65056818,6.81770833 C5.65056818,3.05239199 8.74260163,1.77635684e-14 12.5568182,1.77635684e-14 C16.3710347,1.77635684e-14 19.4630682,3.05239199 19.4630682,6.81770833 L19.4630682,7.4375 L20.0909091,7.4375 C22.8648848,7.4375 25.1136364,9.65742145 25.1136364,12.3958333 C25.1136364,15.1342452 22.8648848,17.3541667 20.0909091,17.3541667 C18.3816122,17.3541667 16.7947443,16.3470052 15.9636399,14.8354883 L15.9644247,14.8347135 Z" id="Icon-Path"></path>
                </g>
            </g>
        </g>
    </g>
</svg>