<?xml version="1.0" encoding="UTF-8"?>
<svg width="22px" height="19px" viewBox="0 0 22 19" version="1.1" xmlns="http://www.w3.org/2000/svg" xmlns:xlink="http://www.w3.org/1999/xlink">
    <title>Icon Shape</title>
    <g id="Page-1" stroke="none" stroke-width="1" fill="none" fill-rule="evenodd">
        <g id="Home-Dashboard" transform="translate(-27.000000, -60.000000)" fill="#F35588" fill-rule="nonzero">
            <path d="M27,61.5833333 C27,60.7088825 27.7035525,60 28.5714286,60 L47.4285714,60 C48.2964475,60 49,60.7088825 49,61.5833333 C49,62.4577842 48.2964475,63.1666667 47.4285714,63.1666667 L28.5714286,63.1666667 C27.7035525,63.1666667 27,62.4577842 27,61.5833333 Z M27,69.5 C27,68.6255491 27.7035525,67.9166667 28.5714286,67.9166667 L47.4285714,67.9166667 C48.2964475,67.9166667 49,68.6255491 49,69.5 C49,70.3744509 48.2964475,71.0833333 47.4285714,71.0833333 L28.5714286,71.0833333 C27.7035525,71.0833333 27,70.3744509 27,69.5 Z M27,77.4166667 C27,76.5422158 27.7035525,75.8333333 28.5714286,75.8333333 L47.4285714,75.8333333 C48.2964475,75.8333333 49,76.5422158 49,77.4166667 C49,78.2911175 48.2964475,79 47.4285714,79 L28.5714286,79 C27.7035525,79 27,78.2911175 27,77.4166667 Z" id="Icon-Shape"></path>
        </g>
    </g>
</svg>