<?xml version="1.0" encoding="UTF-8"?>
<svg width="36px" height="37px" viewBox="0 0 36 37" version="1.1" xmlns="http://www.w3.org/2000/svg" xmlns:xlink="http://www.w3.org/1999/xlink">
    <title>Combined Shape</title>
    <g id="Page-1" stroke="none" stroke-width="1" fill="none" fill-rule="evenodd">
        <g id="Home-Dashboard" transform="translate(-144.000000, -293.000000)" fill="#F35588" fill-rule="nonzero">
            <g id="Rounded-Tabs" transform="translate(32.000000, 271.000000)">
                <path d="M129.502814,22.502067 L130.016667,22.5033333 C135.43,22.5733333 140.85,24.465 146.585,28.29 L146.585,28.29 L146.593333,28.295 C147.699227,29.0366604 148.028244,30.5164306 147.34,31.6566667 L147.34,31.6566667 L132.155,56.965 L132.148333,56.9766667 C131.715,57.6983333 130.925,58.18 130.023333,58.18 L130.023333,58.18 L129.998333,58.18 C129.088333,58.18 128.291667,57.6883333 127.855,56.945 L127.855,56.945 L112.653333,31.045 L112.66,31.0566667 C111.960774,29.8908925 112.325758,28.3797696 113.48,27.6616667 C119.125,24.12 124.533333,22.435 130.016667,22.5033333 Z M129.688333,25 C124.801667,25 119.93,26.565 114.808333,29.7783333 L114.808333,29.7783333 L130.011667,55.6783333 L145.196667,30.37 C139.878333,26.82 134.901667,25.065 129.985,25.0016667 L129.985,25.0016667 Z M128.3,44.6666667 L132.05,47.7916667 L130.45,49.7116667 L126.7,46.5866667 L128.3,44.6666667 Z M135.686667,40.7583333 C136.190709,41.3460352 136.342928,42.1579975 136.085984,42.8883618 C135.829041,43.6187261 135.20197,44.1565327 134.440984,44.2991951 C133.679998,44.4418576 132.900709,44.1677019 132.396667,43.58 C131.617485,42.6714916 131.722325,41.3033484 132.630833,40.5241667 C133.539342,39.744985 134.907485,39.8498249 135.686667,40.7583333 Z M123.554515,37.222299 C124.055922,36.5020342 124.942298,36.1553741 125.799313,36.3443616 C126.656328,36.533349 127.314695,37.2206531 127.466667,38.085 L127.466667,38.085 L127.490619,38.2612819 C127.536421,38.7676947 127.402938,39.2765086 127.109975,39.6970521 C126.780392,40.1701634 126.276068,40.4926537 125.708333,40.5933333 L125.708333,40.5933333 L125.721667,40.5916667 C124.858317,40.7492038 123.985204,40.3703781 123.510457,39.632268 C123.035711,38.894158 123.053107,37.9425637 123.554515,37.222299 Z M134.561667,33.2066667 L135.44,35.5483333 L130.44,37.4233333 L129.561667,35.0816667 L134.561667,33.2066667 Z M130.643333,28.1283333 C134.81,28.1816667 138.6,29.44 142.57,32.0883333 L142.57,32.0883333 L141.183333,34.1683333 C137.631667,31.8 134.271667,30.675 130.61,30.6283333 L130.61,30.6283333 L130.416667,30.6266667 C126.02,30.6266667 122.015,32.555 119.415,34.1866667 L119.415,34.1866667 L118.088333,32.07 C121.011667,30.235 125.561667,28.065 130.643333,28.1283333 Z" id="Combined-Shape"></path>
            </g>
        </g>
    </g>
</svg>