<?xml version="1.0" encoding="UTF-8"?>
<svg width="26px" height="27px" viewBox="0 0 26 27" version="1.1" xmlns="http://www.w3.org/2000/svg" xmlns:xlink="http://www.w3.org/1999/xlink">
    <title>Icon Shape</title>
    <g id="Page-1" stroke="none" stroke-width="1" fill="none" fill-rule="evenodd">
        <g id="Home-Dashboard" transform="translate(-329.000000, -297.000000)" fill="#F35588" fill-rule="nonzero">
            <g id="Rounded-Tabs" transform="translate(32.000000, 271.000000)">
                <path d="M322.26127,28.2029167 C322.551308,27.7682003 322.578465,27.2091129 322.331925,26.7483329 C322.085386,26.2875528 321.605193,26 321.082604,26 L298.415937,26 C297.893822,26.0002697 297.414177,26.2877029 297.167738,26.7479984 C296.9213,27.208294 296.948019,27.7668306 297.23727,28.2015 L308.332604,44.8459167 L308.332604,50.0833333 L304.082604,50.0833333 L304.082604,52.9166667 L315.415937,52.9166667 L315.415937,50.0833333 L311.165937,50.0833333 L311.165937,44.8459167 L322.26127,28.2029167 Z M309.74927,41.8624167 L304.84052,34.5 L314.65802,34.5 L309.74927,41.8624167 Z M318.43627,28.8333333 L316.547854,31.6666667 L302.950687,31.6666667 L301.06227,28.8333333 L318.43627,28.8333333 L318.43627,28.8333333 Z" id="Icon-Shape"></path>
            </g>
        </g>
    </g>
</svg>